name ./resultDataOpenSim/trcMotMarkerGrf/sub10/grf-12-07.mot
datacolumns 19
datarows 10
range 1.00400000 1.04000000
endheader

                time	     ground_force_vx	     ground_force_vy	     ground_force_vz	     ground_force_px	     ground_force_py	     ground_force_pz	   l_ground_force_vx	   l_ground_force_vy	   l_ground_force_vz	   l_ground_force_px	   l_ground_force_py	   l_ground_force_pz	     ground_torque_x	     ground_torque_y	     ground_torque_z	   l_ground_torque_x	   l_ground_torque_y	   l_ground_torque_z	
          1.00400000	          0.00000000	          0.00000000	          0.00000000	          0.00000000	          0.00000000	          0.00000000	         23.61401120	        428.55906359	         27.36914893	          0.03735175	         -0.02500100	         -0.06761613	          0.00000000	          0.00000000	          0.00000000	          0.00000000	         -1.36249596	          0.00000000	
          1.00800000	          0.00000000	          0.00000000	          0.00000000	          0.00000000	          0.00000000	          0.00000000	         26.21993500	        438.42641630	         27.85455567	          0.03789725	         -0.02500100	         -0.06720966	          0.00000000	          0.00000000	          0.00000000	          0.00000000	         -1.51415864	          0.00000000	
          1.01200000	          0.00000000	          0.00000000	          0.00000000	          0.00000000	          0.00000000	          0.00000000	         28.77519999	        449.30987462	         28.33335233	          0.03825729	         -0.02500100	         -0.06692852	          0.00000000	          0.00000000	          0.00000000	          0.00000000	         -1.68861521	          0.00000000	
          1.01600000	          0.00000000	          0.00000000	          0.00000000	          0.00000000	          0.00000000	          0.00000000	         31.30524085	        460.97810659	         28.86765358	          0.03847257	         -0.02500184	         -0.06679419	          0.00000000	          0.00000000	          0.00000000	          0.00000000	         -1.88235271	          0.00000000	
          1.02000000	          0.00000000	          0.00000000	          0.00000000	          0.00000000	          0.00000000	          0.00000000	         33.87133412	        473.39555987	         29.50721262	          0.03864290	         -0.02500200	         -0.06676674	          0.00000000	          0.00000000	          0.00000000	          0.00000000	         -2.09070586	          0.00000000	
          1.02400000	          0.00000000	          0.00000000	          0.00000000	          0.00000000	          0.00000000	          0.00000000	         36.53601481	        486.71782037	         30.26381516	          0.03885948	         -0.02500200	         -0.06677379	          0.00000000	          0.00000000	          0.00000000	          0.00000000	         -2.30910111	          0.00000000	
          1.02800000	          0.00000000	          0.00000000	          0.00000000	          0.00000000	          0.00000000	          0.00000000	         39.32991122	        501.13220624	         31.11169820	          0.03914600	         -0.02500200	         -0.06675429	          0.00000000	          0.00000000	          0.00000000	          0.00000000	         -2.53400573	          0.00000000	
          1.03200000	          0.00000000	          0.00000000	          0.00000000	          0.00000000	          0.00000000	          0.00000000	         42.24974042	        516.69345147	         32.01716125	          0.03949250	         -0.02500200	         -0.06666974	          0.00000000	          0.00000000	          0.00000000	          0.00000000	         -2.76331056	          0.00000000	
          1.03600000	          0.00000000	          0.00000000	          0.00000000	          0.00000000	          0.00000000	          0.00000000	         45.28261490	        533.29847563	         32.95646114	          0.03989621	         -0.02500200	         -0.06650795	          0.00000000	          0.00000000	          0.00000000	          0.00000000	         -2.99615263	          0.00000000	
          1.04000000	          0.00000000	          0.00000000	          0.00000000	          0.00000000	          0.00000000	          0.00000000	         48.44248798	        550.76942484	         33.90729558	          0.04032141	         -0.02500200	         -0.06629589	          0.00000000	          0.00000000	          0.00000000	          0.00000000	         -3.23233757	          0.00000000	
